<svg xmlns="http://www.w3.org/2000/svg" width="24" height="28.62" viewBox="0 0 24 28.62"><defs><style>.a{fill:#fff;}</style></defs><path class="a" d="M-2658,28.62h0c0-.007-.04-.038-.128-.113-2.784-2.4-11.87-10.685-11.87-16.468a11.977,11.977,0,0,1,3.514-8.512A11.9,11.9,0,0,1-2658,0a11.9,11.9,0,0,1,8.485,3.526A11.978,11.978,0,0,1-2646,12.038c0,5.786-9.088,14.069-11.874,16.47l-.126.111Zm0-24.161a7.576,7.576,0,0,0-7.555,7.579A7.576,7.576,0,0,0-2658,19.618a7.576,7.576,0,0,0,7.555-7.579A7.576,7.576,0,0,0-2658,4.459Z" transform="translate(2670)"/></svg>